<?xml version="1.0" encoding="UTF-8" standalone="no"?>
<!-- Created with Inkscape (http://www.inkscape.org/) -->

<svg
   width="97"
   height="97"
   viewBox="0 0 25.664583 25.664583"
   version="1.1"
   id="svg5"
   inkscape:version="1.2.2 (732a01da63, 2022-12-09)"
   sodipodi:docname="icon.svg"
   inkscape:export-filename="icon.png"
   inkscape:export-xdpi="96"
   inkscape:export-ydpi="96"
   xmlns:inkscape="http://www.inkscape.org/namespaces/inkscape"
   xmlns:sodipodi="http://sodipodi.sourceforge.net/DTD/sodipodi-0.dtd"
   xmlns:xlink="http://www.w3.org/1999/xlink"
   xmlns="http://www.w3.org/2000/svg"
   xmlns:svg="http://www.w3.org/2000/svg">
  <sodipodi:namedview
     id="namedview7"
     pagecolor="#ffffff"
     bordercolor="#666666"
     borderopacity="1.0"
     inkscape:showpageshadow="2"
     inkscape:pageopacity="0.0"
     inkscape:pagecheckerboard="0"
     inkscape:deskcolor="#d1d1d1"
     inkscape:document-units="mm"
     showgrid="false"
     inkscape:zoom="2.0788939"
     inkscape:cx="-79.850153"
     inkscape:cy="170.28286"
     inkscape:window-width="1920"
     inkscape:window-height="1129"
     inkscape:window-x="-8"
     inkscape:window-y="-8"
     inkscape:window-maximized="1"
     inkscape:current-layer="layer1" />
  <defs
     id="defs2">
    <marker
       style="overflow:visible"
       id="Arrow2"
       refX="0"
       refY="0"
       orient="auto-start-reverse"
       inkscape:stockid="Arrow2"
       markerWidth="7.6999998"
       markerHeight="5.5999999"
       viewBox="0 0 7.7 5.6"
       inkscape:isstock="true"
       inkscape:collect="always"
       preserveAspectRatio="xMidYMid">
      <path
         transform="scale(0.7)"
         d="M -2,-4 9,0 -2,4 c 2,-2.33 2,-5.66 0,-8 z"
         style="fill:context-stroke;fill-rule:evenodd;stroke:none"
         id="arrow2L" />
    </marker>
    <radialGradient
       r="131.82491"
       fy="649.31128"
       fx="123.23861"
       cy="649.31128"
       cx="123.23861"
       gradientTransform="matrix(0.10015087,0,0,0.1565912,0.48983925,-88.844144)"
       gradientUnits="userSpaceOnUse"
       id="radialGradient3155"
       xlink:href="#linearGradient4113-2-7"
       inkscape:collect="always" />
    <linearGradient
       id="linearGradient4113-2-7">
      <stop
         id="stop4121-6-9"
         offset="0"
         style="stop-color:#f1f3ef;stop-opacity:1;" />
      <stop
         style="stop-color:#000000;stop-opacity:1;"
         offset="1"
         id="stop4117-4-0" />
    </linearGradient>
    <linearGradient
       id="linear-gradient"
       x1="120"
       y1="240"
       x2="120"
       gradientUnits="userSpaceOnUse">
      <stop
         offset="0"
         stop-color="#1d93d2"
         id="stop490" />
      <stop
         offset="1"
         stop-color="#38b0e3"
         id="stop492" />
    </linearGradient>
  </defs>
  <g
     inkscape:label="Livello 1"
     inkscape:groupmode="layer"
     id="layer1">
    <rect
       style="display:inline;opacity:0.220339;fill:url(#radialGradient3155);fill-opacity:1;stroke:#757575;stroke-width:0.256486;stroke-miterlimit:4;stroke-dasharray:none;stroke-opacity:1"
       id="rect4111-9"
       width="24.878931"
       height="24.878931"
       x="0.39282641"
       y="0.39282641"
       ry="2.1923962" />
    <path
       class="st0"
       d="M 11.901443,3.9745276 11.208,5.1757366 c 1.614244,2.0790659 1.820129,4.1619199 0.61892,6.2422474 C 11.0779,12.716453 9.9802652,13.556416 8.5340143,13.941662 7.0915514,14.328171 5.719824,14.145021 4.4238804,13.397266 3.1317284,12.652035 2.290502,11.55819 1.90273,10.114464 1.5124315,8.6694761 1.6880028,7.3053259 2.4307056,6.0194884 3.6016011,3.990947 5.5114114,3.1244589 8.156346,3.4162361 L 8.8497893,2.215027 C 9.2350347,2.231452 9.6644902,2.3312339 10.14068,2.5093284 l 0.106102,-0.1844125 c 0.34988,-0.6062883 0.842489,-1.0066917 1.47783,-1.1923668 0.636603,-0.18820278 1.227735,-0.097262 1.81255,0.2134633 2.300108,1.2201573 0.332196,3.5518423 2.101801,4.7315789 0.232412,0.1540989 0.597447,0.219779 1.064795,0.2399888 0.06821,0 0.15031,0.02652 0.237463,0.07705 0.271568,0.1566254 0.344827,0.3435632 0.21978,0.560818 -0.132625,0.229884 -0.410508,0.3422994 -0.83491,0.3309318 -0.423139,-0.00633 -0.841227,-0.1313614 -1.252998,-0.368826 -2.08538,-1.2037356 -0.4484,-3.5493147 -2.075275,-4.6760014 -0.727546,-0.5039778 -1.4172,-0.2071487 -1.981807,0.7717548 0.337248,0.3069339 0.631552,0.6264981 0.885436,0.9612203 z"
       id="path253"
       style="clip-rule:evenodd;fill:#a80000;fill-opacity:1;fill-rule:evenodd;stroke-width:0.126311" />
    <g
       id="g653"
       transform="matrix(0.05033211,0,0,0.05033211,9.2150092,35.273125)">
      <g
         id="g4664"
         transform="translate(60.215059,-449.46241)">
        <circle
           cx="120"
           cy="120"
           r="120"
           fill="url(#linear-gradient)"
           id="circle499"
           style="fill:url(#linear-gradient)" />
        <path
           d="m 81.229,128.772 14.237,39.406 c 0,0 1.78,3.687 3.686,3.687 1.906,0 30.255,-29.492 30.255,-29.492 L 160.932,81.483 81.737,118.6 Z"
           fill="#c8daea"
           id="path501" />
        <path
           d="m 100.106,138.878 -2.733,29.046 c 0,0 -1.144,8.9 7.754,0 8.898,-8.9 17.415,-15.763 17.415,-15.763"
           fill="#a9c6d8"
           id="path503" />
        <path
           d="M 81.486,130.178 52.2,120.636 c 0,0 -3.5,-1.42 -2.373,-4.64 0.232,-0.664 0.7,-1.229 2.1,-2.2 6.489,-4.523 120.106,-45.36 120.106,-45.36 0,0 3.208,-1.081 5.1,-0.362 a 2.766,2.766 0 0 1 1.885,2.055 9.357,9.357 0 0 1 0.254,2.585 c -0.009,0.752 -0.1,1.449 -0.169,2.542 -0.692,11.165 -21.4,94.493 -21.4,94.493 0,0 -1.239,4.876 -5.678,5.043 A 8.13,8.13 0 0 1 146.1,172.5 c -8.711,-7.493 -38.819,-27.727 -45.472,-32.177 a 1.27,1.27 0 0 1 -0.546,-0.9 c -0.093,-0.469 0.417,-1.05 0.417,-1.05 0,0 52.426,-46.6 53.821,-51.492 0.108,-0.379 -0.3,-0.566 -0.848,-0.4 -3.482,1.281 -63.844,39.4 -70.506,43.607 a 3.21,3.21 0 0 1 -1.48,0.09 z"
           fill="#ffffff"
           id="path505" />
      </g>
    </g>
    <path
       style="fill:none;stroke:#000000;stroke-width:0.794;stroke-dasharray:none;marker-end:url(#Arrow2)"
       d="M 8.0163417,8.7222175 13.154475,13.863789"
       id="path782"
       sodipodi:nodetypes="cc" />
  </g>
</svg>
