<?xml version="1.0" encoding="UTF-8" standalone="no"?>
<!-- Created with Inkscape (http://www.inkscape.org/) -->

<svg
   width="97"
   height="97"
   viewBox="0 0 25.664583 25.664583"
   version="1.1"
   id="svg5"
   inkscape:version="1.2.2 (732a01da63, 2022-12-09)"
   sodipodi:docname="icon.svg"
   inkscape:export-filename="icon.png"
   inkscape:export-xdpi="98.021049"
   inkscape:export-ydpi="98.021049"
   xmlns:inkscape="http://www.inkscape.org/namespaces/inkscape"
   xmlns:sodipodi="http://sodipodi.sourceforge.net/DTD/sodipodi-0.dtd"
   xmlns:xlink="http://www.w3.org/1999/xlink"
   xmlns="http://www.w3.org/2000/svg"
   xmlns:svg="http://www.w3.org/2000/svg">
  <sodipodi:namedview
     id="namedview7"
     pagecolor="#ffffff"
     bordercolor="#666666"
     borderopacity="1.0"
     inkscape:showpageshadow="2"
     inkscape:pageopacity="0.0"
     inkscape:pagecheckerboard="0"
     inkscape:deskcolor="#d1d1d1"
     inkscape:document-units="mm"
     showgrid="false"
     inkscape:zoom="2.9399999"
     inkscape:cx="-41.666667"
     inkscape:cy="109.86395"
     inkscape:window-width="1920"
     inkscape:window-height="1129"
     inkscape:window-x="-8"
     inkscape:window-y="-8"
     inkscape:window-maximized="1"
     inkscape:current-layer="layer1"
     showguides="true" />
  <defs
     id="defs2">
    <marker
       style="overflow:visible"
       id="Arrow2"
       refX="0"
       refY="0"
       orient="auto-start-reverse"
       inkscape:stockid="Arrow2"
       markerWidth="7.6999998"
       markerHeight="5.5999999"
       viewBox="0 0 7.7 5.6"
       inkscape:isstock="true"
       inkscape:collect="always"
       preserveAspectRatio="xMidYMid">
      <path
         transform="scale(0.7)"
         d="M -2,-4 9,0 -2,4 c 2,-2.33 2,-5.66 0,-8 z"
         style="fill:context-stroke;fill-rule:evenodd;stroke:none"
         id="arrow2L" />
    </marker>
    <radialGradient
       r="131.82491"
       fy="649.31128"
       fx="123.23861"
       cy="649.31128"
       cx="123.23861"
       gradientTransform="matrix(0.10015087,0,0,0.1565912,0.48983925,-88.844144)"
       gradientUnits="userSpaceOnUse"
       id="radialGradient3155"
       xlink:href="#linearGradient4113-2-7"
       inkscape:collect="always" />
    <linearGradient
       id="linearGradient4113-2-7">
      <stop
         id="stop4121-6-9"
         offset="0"
         style="stop-color:#f1f3ef;stop-opacity:1;" />
      <stop
         style="stop-color:#000000;stop-opacity:1;"
         offset="1"
         id="stop4117-4-0" />
    </linearGradient>
    <linearGradient
       id="linear-gradient"
       x1="120"
       y1="240"
       x2="120"
       gradientUnits="userSpaceOnUse">
      <stop
         offset="0"
         stop-color="#1d93d2"
         id="stop490" />
      <stop
         offset="1"
         stop-color="#38b0e3"
         id="stop492" />
    </linearGradient>
  </defs>
  <g
     inkscape:label="Livello 1"
     inkscape:groupmode="layer"
     id="layer1">
    <rect
       style="display:inline;opacity:0.220339;fill:url(#radialGradient3155);fill-opacity:1;stroke:#757575;stroke-width:0.256486;stroke-miterlimit:4;stroke-dasharray:none;stroke-opacity:1"
       id="rect4111-9"
       width="24.878931"
       height="24.878931"
       x="0.39282641"
       y="0.39282641"
       ry="2.1923962" />
    <path
       class="st0"
       d="m 16.334391,3.2439506 -0.545586,0.9450845 c 1.270052,1.6357629 1.432037,3.2745062 0.486953,4.9112612 -0.589312,1.0216067 -1.452907,1.6824707 -2.590786,1.9855737 -1.134898,0.304097 -2.214143,0.159998 -3.233763,-0.428319 C 9.4345727,10.07122 8.7727144,9.2106072 8.467624,8.0747162 8.1605459,6.9378318 8.2986815,5.8645487 8.8830235,4.8528803 9.8042581,3.256869 11.306855,2.5751354 13.387831,2.8046992 l 0.545586,-0.9450846 c 0.303103,0.012923 0.640989,0.091429 1.015645,0.2315498 l 0.08348,-0.1450916 c 0.275278,-0.4770142 0.662852,-0.7920426 1.162724,-0.9381277 0.500865,-0.14807373 0.965955,-0.0765236 1.426074,0.1679482 1.809674,0.9599926 0.261365,2.7945105 1.653651,3.7227011 0.182856,0.1212416 0.470058,0.1729172 0.837757,0.1888178 0.05367,0 0.11826,0.020865 0.18683,0.060621 0.213664,0.1232294 0.271303,0.2703079 0.172918,0.4412391 -0.104348,0.1808679 -0.32298,0.2693139 -0.65689,0.2603701 -0.332917,-0.00498 -0.661859,-0.1033522 -0.985831,-0.2901841 -1.640731,-0.9470724 -0.352791,-2.792522 -1.632781,-3.678974 -0.572417,-0.3965185 -1.115021,-0.16298 -1.559241,0.6071995 0.265339,0.2414888 0.496891,0.4929148 0.696641,0.7562668 z"
       id="path253"
       style="clip-rule:evenodd;fill:#a80000;fill-opacity:1;fill-rule:evenodd;stroke-width:0.0993787" />
    <g
       id="g653"
       transform="matrix(0.03919588,0,0,0.03919588,13.08744,32.940503)">
      <g
         id="g4664"
         transform="translate(60.215059,-449.46241)">
        <circle
           cx="120"
           cy="120"
           r="120"
           fill="url(#linear-gradient)"
           id="circle499"
           style="fill:url(#linear-gradient)" />
        <path
           d="m 81.229,128.772 14.237,39.406 c 0,0 1.78,3.687 3.686,3.687 1.906,0 30.255,-29.492 30.255,-29.492 L 160.932,81.483 81.737,118.6 Z"
           fill="#c8daea"
           id="path501" />
        <path
           d="m 100.106,138.878 -2.733,29.046 c 0,0 -1.144,8.9 7.754,0 8.898,-8.9 17.415,-15.763 17.415,-15.763"
           fill="#a9c6d8"
           id="path503" />
        <path
           d="M 81.486,130.178 52.2,120.636 c 0,0 -3.5,-1.42 -2.373,-4.64 0.232,-0.664 0.7,-1.229 2.1,-2.2 6.489,-4.523 120.106,-45.36 120.106,-45.36 0,0 3.208,-1.081 5.1,-0.362 a 2.766,2.766 0 0 1 1.885,2.055 9.357,9.357 0 0 1 0.254,2.585 c -0.009,0.752 -0.1,1.449 -0.169,2.542 -0.692,11.165 -21.4,94.493 -21.4,94.493 0,0 -1.239,4.876 -5.678,5.043 A 8.13,8.13 0 0 1 146.1,172.5 c -8.711,-7.493 -38.819,-27.727 -45.472,-32.177 a 1.27,1.27 0 0 1 -0.546,-0.9 c -0.093,-0.469 0.417,-1.05 0.417,-1.05 0,0 52.426,-46.6 53.821,-51.492 0.108,-0.379 -0.3,-0.566 -0.848,-0.4 -3.482,1.281 -63.844,39.4 -70.506,43.607 a 3.21,3.21 0 0 1 -1.48,0.09 z"
           fill="#ffffff"
           id="path505" />
      </g>
    </g>
    <path
       style="fill:none;stroke:#000000;stroke-width:0.794;stroke-dasharray:none;marker-end:url(#Arrow2)"
       d="m 13.269532,7.8756234 4.238194,5.9054106"
       id="path782"
       sodipodi:nodetypes="cc" />
    <g
       id="g367"
       transform="matrix(0.03669114,0,0,0.03669114,0.88902941,15.26767)">
      <g
         id="g226">
        <path
           d="M 165.96354,15.838426 C 162.07318,3.863082 149.21233,-2.6900984 137.23908,1.2023607 125.26374,5.0927213 118.71056,17.953574 122.60302,29.92682 l 58.94714,181.36551 c 4.04774,11.18636 16.1322,17.47305 27.73194,14.13455 12.09915,-3.48327 19.47488,-16.33363 15.6139,-28.21665 -0.14689,-0.45325 -58.93246,-181.371804 -58.93246,-181.371804"
           fill="#dfa22f"
           id="path210" />
        <path
           d="M 74.626098,45.515541 C 70.733639,33.542295 57.872787,26.989115 45.899541,30.879475 33.924197,34.769836 27.371016,47.630688 31.263475,59.606033 L 90.210623,240.97154 c 4.047738,11.18636 16.132197,17.47305 27.731937,14.13246 12.09914,-3.48118 19.47488,-16.33154 15.6139,-28.21666 C 133.40957,226.4362 74.626098,45.515541 74.626098,45.515541"
           fill="#3cb187"
           id="path212" />
        <path
           d="m 240.16157,166.04538 c 11.97535,-3.89036 18.52643,-16.75122 14.63607,-28.72656 -3.89036,-11.97325 -16.75121,-18.52643 -28.72446,-14.63607 L 44.707672,181.632 c -11.18636,4.04564 -17.473049,16.1301 -14.134557,27.72984 3.483278,12.09914 16.333639,19.47488 28.216656,15.6139 0.453245,-0.14689 181.371799,-58.93036 181.371799,-58.93036"
           fill="#ce1e5b"
           id="path214" />
        <path
           d="m 82.507541,217.27056 c 11.805377,-3.83581 27.020589,-8.77954 43.347939,-14.0842 -3.83581,-11.80538 -8.77955,-27.02269 -14.0863,-43.35213 l -43.350033,14.09049 14.088394,43.34584"
           fill="#392538"
           id="path216" />
        <path
           d="m 173.84708,187.59134 c 16.3882,-5.32354 31.6202,-10.27357 43.34794,-14.08419 -3.83581,-11.80538 -8.78164,-27.02689 -14.0884,-43.36053 l -43.35003,14.09049 14.09049,43.35423"
           fill="#bb242a"
           id="path218" />
        <path
           d="M 210.48446,74.705836 C 222.4577,70.815475 229.01088,57.954623 225.12052,45.979279 221.23016,34.006033 208.36931,27.452852 196.39397,31.343213 L 15.028459,90.292459 C 3.8420984,94.338098 -2.4445902,106.42256 0.896,118.0223 4.3771803,130.12144 17.227541,137.49718 29.112656,133.6362 29.563803,133.48931 210.48446,74.705836 210.48446,74.705836"
           fill="#72c5cd"
           id="path220" />
        <path
           d="M 52.822033,125.93312 C 64.62741,122.09731 79.84682,117.15148 96.176262,111.84682 90.852721,95.456525 85.902688,80.224525 82.092066,68.494688 L 38.731541,82.587279 52.822033,125.93312"
           fill="#248c73"
           id="path222" />
        <path
           d="M 144.15947,96.256 C 160.55187,90.930361 175.78597,85.980328 187.5158,82.167607 182.19016,65.775213 177.24013,50.539016 173.42741,38.807082 L 130.06898,52.899672 144.15947,96.256"
           fill="#62803a"
           id="path224" />
      </g>
    </g>
    <path
       style="fill:none;stroke:#000000;stroke-width:0.794;stroke-dasharray:none;marker-end:url(#Arrow2)"
       d="M 13.13369,7.6528988 8.8954965,13.558309"
       id="path677"
       sodipodi:nodetypes="cc" />
  </g>
</svg>
